<?xml version="1.0" encoding="UTF-8"?>
<svg xmlns="http://www.w3.org/2000/svg" viewBox="0 0 1600 900" width="1600" height="900" role="img" aria-hidden="true">
  <defs>
    <linearGradient id="wash" x1="0" y1="0" x2="1" y2="1">
      <stop offset="0" stop-color="#122016"/>
      <stop offset="1" stop-color="#2d4a38"/>
    </linearGradient>
    <pattern id="dust" width="80" height="80" patternUnits="userSpaceOnUse">
      <circle cx="8" cy="10" r="1.1" fill="#e4cf96" opacity=".25"/>
      <circle cx="50" cy="40" r="0.9" fill="#f6f1e6" opacity=".18"/>
    </pattern>
  </defs>
  <rect width="1600" height="900" fill="url(#wash)"/>
  <rect width="1600" height="900" fill="url(#dust)"/>
  <rect x="48" y="48" width="1504" height="804" fill="none" stroke="#c4a35a" stroke-width="3" opacity=".55"/>
  <rect x="64" y="64" width="1472" height="772" fill="none" stroke="#e4cf96" stroke-width="1.5" opacity=".35"/>
  
    <rect x="420" y="210" width="520" height="460" rx="18" fill="#f6f1e6" stroke="#c4a35a" stroke-width="8"/>
    <rect x="460" y="250" width="440" height="18" rx="4" fill="#c4a35a" opacity=".45"/>
    <rect x="460" y="290" width="380" height="12" rx="3" fill="#2d4a38" opacity=".35"/>
    <rect x="460" y="320" width="400" height="12" rx="3" fill="#2d4a38" opacity=".28"/>
    <rect x="460" y="350" width="300" height="12" rx="3" fill="#2d4a38" opacity=".22"/>
    <path d="M380 200 q-40 240 0 500" fill="none" stroke="#c4a35a" stroke-width="22"/>
    <path d="M980 200 q40 240 0 500" fill="none" stroke="#c4a35a" stroke-width="22"/>
    <circle cx="380" cy="200" r="18" fill="#e4cf96"/><circle cx="980" cy="200" r="18" fill="#e4cf96"/>
</svg>